<svg xmlns="http://www.w3.org/2000/svg" viewBox="0 0 806 457" width="806" height="457" role="img" aria-label="ztls — Sans-I/O TLS 1.3 in Zig">
  <g fill="#16181d" transform="translate(44.00 244.00) scale(0.20000 -0.20000)">
      <path transform="translate(0.00 0)" d="M300 -10Q262 -10 238.5 13.0Q215 36 215 72Q215 110 238.5 134.0Q262 158 300 158Q338 158 361.5 134.0Q385 110 385 72Q385 36 361.5 13.0Q338 -10 300 -10Z"/>
      <path transform="translate(600.00 0)" d="M87 0V96L390 461H95V550H502V454L194 89H513V0Z"/>
      <path transform="translate(1200.00 0)" d="M355 0Q284 0 242.5 41.0Q201 82 201 150V460H44V550H201V705H300V550H523V460H300V151Q300 124 315.5 107.0Q331 90 357 90H518V0Z"/>
      <path transform="translate(1800.00 0)" d="M382 0Q307 0 262.0 44.0Q217 88 217 161V640H29V730H316V162Q316 129 334.5 109.5Q353 90 385 90H552V0Z"/>
      <path transform="translate(2400.00 0)" d="M278 -8Q184 -8 132.0 34.0Q80 76 80 152H178Q178 116 204.5 95.5Q231 75 278 75H322Q371 75 397.5 96.0Q424 117 424 155Q424 222 358 230L210 251Q151 260 119.0 299.5Q87 339 87 402Q87 476 137.0 517.0Q187 558 277 558H321Q405 558 457.0 518.0Q509 478 512 412H412Q410 440 386.0 458.5Q362 477 321 477H277Q232 477 207.5 457.0Q183 437 183 403Q183 348 238 341L377 321Q520 302 520 155Q520 77 468.5 34.5Q417 -8 322 -8Z"/>
  </g>
  <g fill="#5b606b" transform="translate(44.00 401.04) scale(0.05200 -0.05200)">
      <path transform="translate(0.00 0)" d="M304 -10Q198 -10 135.0 46.0Q72 102 72 200H162Q162 139 201.0 104.5Q240 70 304 70Q366 70 403.0 106.0Q440 142 440 200Q440 244 416.5 276.5Q393 309 349 321L238 352Q169 372 129.5 423.5Q90 475 90 545Q90 603 116.0 647.0Q142 691 189.0 715.5Q236 740 297 740Q359 740 406.5 715.5Q454 691 481.0 647.5Q508 604 508 547H418Q418 597 384.0 628.5Q350 660 297 660Q244 660 211.0 628.5Q178 597 178 547Q178 507 199.5 478.5Q221 450 260 439L374 407Q447 387 487.5 331.5Q528 276 528 200Q528 104 467.0 47.0Q406 -10 304 -10Z"/>
      <path transform="translate(600.00 0)" d="M252 -10Q167 -10 117.0 37.5Q67 85 67 162Q67 213 90.0 251.0Q113 289 154.0 310.5Q195 332 248 332H418V375Q418 482 301 482Q249 482 217.0 463.0Q185 444 183 410H93Q98 475 153.5 517.5Q209 560 301 560Q401 560 454.5 512.0Q508 464 508 378V0H419V100H417Q409 49 366.0 19.5Q323 -10 252 -10ZM274 66Q340 66 379.0 98.0Q418 130 418 185V262H258Q214 262 186.5 235.5Q159 209 159 165Q159 119 189.5 92.5Q220 66 274 66Z"/>
      <path transform="translate(1200.00 0)" d="M92 0V550H182V445H183Q190 500 228.0 530.0Q266 560 329 560Q412 560 461.0 509.0Q510 458 510 370V0H420V354Q420 417 388.5 450.5Q357 484 303 484Q247 484 214.5 449.0Q182 414 182 350V0Z"/>
      <path transform="translate(1800.00 0)" d="M278 -8Q186 -8 135.5 33.5Q85 75 85 151H175Q175 113 202.0 91.5Q229 70 278 70H322Q372 70 399.5 92.0Q427 114 427 154Q427 225 362 234L210 256Q154 264 123.0 302.5Q92 341 92 404Q92 476 141.5 517.0Q191 558 278 558H322Q402 558 452.5 518.5Q503 479 507 415H416Q414 444 388.5 463.0Q363 482 322 482H278Q232 482 206.0 461.0Q180 440 180 404Q180 346 233 338L375 318Q515 298 515 154Q515 77 464.5 34.5Q414 -8 322 -8Z"/>
      <path transform="translate(2400.00 0)" d="M140 290V370H460V290Z"/>
      <path transform="translate(3000.00 0)" d="M105 0V82H254V648H105V730H495V648H346V82H495V0Z"/>
      <path transform="translate(3600.00 0)" d="M75 -110 430 830H525L170 -110Z"/>
      <path transform="translate(4200.00 0)" d="M300 -10Q202 -10 145.0 47.0Q88 104 88 210V520Q88 626 145.0 683.0Q202 740 300 740Q398 740 455.0 683.0Q512 626 512 521V210Q512 104 455.0 47.0Q398 -10 300 -10ZM300 71Q359 71 390.5 104.5Q422 138 422 200V530Q422 592 390.5 625.5Q359 659 300 659Q242 659 210.0 625.5Q178 592 178 530V200Q178 138 210.0 104.5Q242 71 300 71Z"/>
      <path transform="translate(5400.00 0)" d="M255 0V648H55V730H545V648H345V0Z"/>
      <path transform="translate(6000.00 0)" d="M130 0V730H220V82H550V0Z"/>
      <path transform="translate(6600.00 0)" d="M304 -10Q198 -10 135.0 46.0Q72 102 72 200H162Q162 139 201.0 104.5Q240 70 304 70Q366 70 403.0 106.0Q440 142 440 200Q440 244 416.5 276.5Q393 309 349 321L238 352Q169 372 129.5 423.5Q90 475 90 545Q90 603 116.0 647.0Q142 691 189.0 715.5Q236 740 297 740Q359 740 406.5 715.5Q454 691 481.0 647.5Q508 604 508 547H418Q418 597 384.0 628.5Q350 660 297 660Q244 660 211.0 628.5Q178 597 178 547Q178 507 199.5 478.5Q221 450 260 439L374 407Q447 387 487.5 331.5Q528 276 528 200Q528 104 467.0 47.0Q406 -10 304 -10Z"/>
      <path transform="translate(7800.00 0)" d="M90 0V82H288V652L90 504V607L255 730H378V82H540V0Z"/>
      <path transform="translate(8400.00 0)" d="M300 -10Q263 -10 240.5 12.0Q218 34 218 69Q218 106 240.5 129.0Q263 152 300 152Q337 152 359.5 129.0Q382 106 382 69Q382 34 359.5 12.0Q337 -10 300 -10Z"/>
      <path transform="translate(9000.00 0)" d="M289 -10Q188 -10 129.0 46.5Q70 103 70 200H160Q160 140 195.0 105.0Q230 70 290 70Q350 70 385.0 105.0Q420 140 420 200V250Q420 310 385.0 345.0Q350 380 290 380H211V458L390 648H90V730H492V646L316 459Q406 452 458.0 396.5Q510 341 510 250V200Q510 103 450.5 46.5Q391 -10 289 -10Z"/>
      <path transform="translate(10200.00 0)" d="M85 0V82H280V468H105V550H370V82H555V0ZM315 649Q282 649 263.0 666.0Q244 683 244 712Q244 742 263.0 759.5Q282 777 315 777Q348 777 367.0 759.5Q386 742 386 712Q386 683 367.0 666.0Q348 649 315 649Z"/>
      <path transform="translate(10800.00 0)" d="M92 0V550H182V445H183Q190 500 228.0 530.0Q266 560 329 560Q412 560 461.0 509.0Q510 458 510 370V0H420V354Q420 417 388.5 450.5Q357 484 303 484Q247 484 214.5 449.0Q182 414 182 350V0Z"/>
      <path transform="translate(12000.00 0)" d="M85 0V90L414 648H90V730H505V640L176 82H515V0Z"/>
      <path transform="translate(12600.00 0)" d="M85 0V82H280V468H105V550H370V82H555V0ZM315 649Q282 649 263.0 666.0Q244 683 244 712Q244 742 263.0 759.5Q282 777 315 777Q348 777 367.0 759.5Q386 742 386 712Q386 683 367.0 666.0Q348 649 315 649Z"/>
      <path transform="translate(13200.00 0)" d="M161 -180V-98H316Q363 -98 390.0 -71.5Q417 -45 417 0V50L419 140H416Q408 91 369.0 64.5Q330 38 271 38Q186 38 137.0 92.0Q88 146 88 240V356Q88 450 137.0 505.0Q186 560 271 560Q330 560 369.0 532.0Q408 504 416 455H418V550H507V0Q507 -83 455.5 -131.5Q404 -180 315 -180ZM298 113Q354 113 386.0 148.0Q418 183 418 245V350Q418 412 386.0 447.0Q354 482 298 482Q241 482 209.5 449.0Q178 416 178 360V235Q178 179 209.5 146.0Q241 113 298 113Z"/>
  </g>
</svg>
